<svg width="53" height="52" fill="#FF5A30" xmlns="http://www.w3.org/2000/svg"><g clip-path="url(#a)" fill="#fff"><path d="M11.266 36.664c-2.52 0-4.57 2.05-4.57 4.57 0 2.52 2.05 4.57 4.57 4.57 2.52 0 4.57-2.05 4.57-4.57 0-2.52-2.05-4.57-4.57-4.57Zm0 6.094c-.84 0-1.524-.684-1.524-1.524s.684-1.523 1.524-1.523 1.523.683 1.523 1.523c0 .84-.683 1.524-1.523 1.524Z"/><path d="M49.75 30.95a4.572 4.572 0 0 0 .286-5.005l-6.09-10.65c-1.054-1.825-3.276-2.658-5.258-2.128a4.579 4.579 0 0 0-2.176-4.954L25.958 2.12a4.574 4.574 0 0 0-4.695.076A4.572 4.572 0 0 0 17.359 0H5.07C2.55 0 .5 2.05.5 4.57v42.86C.5 49.95 2.55 52 5.07 52h42.86c2.52 0 4.57-2.05 4.57-4.57V35.14a4.576 4.576 0 0 0-2.75-4.19ZM18.883 47.43c0 .84-.684 1.523-1.524 1.523H5.07c-.84 0-1.523-.683-1.523-1.523V33.617h15.336V47.43Zm0-16.86H3.547V18.281h15.336v12.29Zm0-15.336H3.547V4.57c0-.84.683-1.523 1.523-1.523h12.29c.84 0 1.523.683 1.523 1.523v10.664ZM21.93 6.05l.423-.734a1.526 1.526 0 0 1 2.082-.558l10.554 6.094c.728.42.978 1.354.557 2.083l-1.76 3.06a1.517 1.517 0 0 0-.118.203L21.93 36.603V6.05Zm0 36.663L36.17 17.958l2.945-1.7c.746-.43 1.77-.17 2.188.555l6.09 10.65c.422.73.176 1.665-.561 2.09L21.93 43.972v-1.258Zm27.523 4.717c0 .84-.683 1.523-1.523 1.523H21.668c.162-.458.253-.95.26-1.46l23.967-13.876h2.035c.84 0 1.523.684 1.523 1.524V47.43Z"/></g><defs><clipPath id="a"><path fill="#fff" transform="translate(.5)" d="M0 0h52v52H0z"/></clipPath></defs></svg>